<?xml version="1.0" encoding="UTF-8" standalone="no"?>
<!DOCTYPE svg PUBLIC "-//W3C//DTD SVG 1.1//EN"
 "http://www.w3.org/Graphics/SVG/1.1/DTD/svg11.dtd">
<!-- Generated by graphviz version 14.1.3 (20260303.0454)
 -->
<!-- Title: Paired Pages: 1 -->
<svg width="958pt" height="743pt"
 viewBox="0.00 0.00 958.00 743.00" xmlns="http://www.w3.org/2000/svg" xmlns:xlink="http://www.w3.org/1999/xlink">
<g id="graph0" class="graph" transform="scale(1 1) rotate(0) translate(28.8 714.4)">
<title>Paired</title>
<polygon fill="white" stroke="none" points="-28.8,28.8 -28.8,-714.4 929.6,-714.4 929.6,28.8 -28.8,28.8"/>
<text xml:space="preserve" text-anchor="middle" x="450.4" y="-661.8" font-family="Microsoft YaHei" font-size="22.00" fill="#18334d">经验到底带来了多少额外收益？</text>
<text xml:space="preserve" text-anchor="middle" x="450.4" y="-635.4" font-family="Microsoft YaHei" font-size="22.00" fill="#18334d">离线配对实验 · 非线上每题跑三遍</text>
<!-- common -->
<g id="node1" class="node">
<title>common</title>
<path fill="#dfeaf8" stroke="#95abc0" d="M733.6,-624.8C733.6,-624.8 167.2,-624.8 167.2,-624.8 161.2,-624.8 155.2,-618.8 155.2,-612.8 155.2,-612.8 155.2,-554 155.2,-554 155.2,-548 161.2,-542 167.2,-542 167.2,-542 733.6,-542 733.6,-542 739.6,-542 745.6,-548 745.6,-554 745.6,-554 745.6,-612.8 745.6,-612.8 745.6,-618.8 739.6,-624.8 733.6,-624.8"/>
<text xml:space="preserve" text-anchor="middle" x="450.4" y="-596.9" font-family="Microsoft YaHei" font-size="15.00" fill="#19364f">同一道原问题 · 同一个决策起点</text>
<text xml:space="preserve" text-anchor="middle" x="450.4" y="-578.9" font-family="Microsoft YaHei" font-size="15.00" fill="#19364f">PRE：首次检索前；或 POST：共享首检状态</text>
<text xml:space="preserve" text-anchor="middle" x="450.4" y="-560.9" font-family="Microsoft YaHei" font-size="15.00" fill="#19364f">两种阶段分别比较，不混在一起</text>
</g>
<!-- base -->
<g id="node2" class="node">
<title>base</title>
<path fill="#f3f7fc" stroke="#95abc0" d="M268.8,-502C268.8,-502 12,-502 12,-502 6,-502 0,-496 0,-490 0,-490 0,-449.2 0,-449.2 0,-443.2 6,-437.2 12,-437.2 12,-437.2 268.8,-437.2 268.8,-437.2 274.8,-437.2 280.8,-443.2 280.8,-449.2 280.8,-449.2 280.8,-490 280.8,-490 280.8,-496 274.8,-502 268.8,-502"/>
<text xml:space="preserve" text-anchor="middle" x="140.4" y="-474.1" font-family="Microsoft YaHei" font-size="15.00" fill="#19364f">BASE</text>
<text xml:space="preserve" text-anchor="middle" x="140.4" y="-456.1" font-family="Microsoft YaHei" font-size="15.00" fill="#19364f">不改写、不用历史</text>
</g>
<!-- common&#45;&gt;base -->
<g id="edge1" class="edge">
<title>common&#45;&gt;base</title>
<path fill="none" stroke="#60788e" d="M337.17,-541.56C304.3,-529.71 268.73,-516.88 236.98,-505.43"/>
<polygon fill="#60788e" stroke="#60788e" points="237.94,-502.99 229.99,-502.91 236.16,-507.93 237.94,-502.99"/>
</g>
<!-- fresh -->
<g id="node3" class="node">
<title>fresh</title>
<path fill="#deefe9" stroke="#95abc0" d="M578.8,-502C578.8,-502 322,-502 322,-502 316,-502 310,-496 310,-490 310,-490 310,-449.2 310,-449.2 310,-443.2 316,-437.2 322,-437.2 322,-437.2 578.8,-437.2 578.8,-437.2 584.8,-437.2 590.8,-443.2 590.8,-449.2 590.8,-449.2 590.8,-490 590.8,-490 590.8,-496 584.8,-502 578.8,-502"/>
<text xml:space="preserve" text-anchor="middle" x="450.4" y="-474.1" font-family="Microsoft YaHei" font-size="15.00" fill="#19364f">FRESH</text>
<text xml:space="preserve" text-anchor="middle" x="450.4" y="-456.1" font-family="Microsoft YaHei" font-size="15.00" fill="#19364f">现场改写，不看历史</text>
</g>
<!-- common&#45;&gt;fresh -->
<g id="edge2" class="edge">
<title>common&#45;&gt;fresh</title>
<path fill="none" stroke="#60788e" d="M450.4,-541.72C450.4,-531.78 450.4,-521.14 450.4,-511.2"/>
<polygon fill="#60788e" stroke="#60788e" points="453.03,-511.32 450.4,-503.82 447.78,-511.32 453.03,-511.32"/>
</g>
<!-- reuse -->
<g id="node4" class="node">
<title>reuse</title>
<path fill="#fff0d4" stroke="#95abc0" d="M888.8,-502C888.8,-502 632,-502 632,-502 626,-502 620,-496 620,-490 620,-490 620,-449.2 620,-449.2 620,-443.2 626,-437.2 632,-437.2 632,-437.2 888.8,-437.2 888.8,-437.2 894.8,-437.2 900.8,-443.2 900.8,-449.2 900.8,-449.2 900.8,-490 900.8,-490 900.8,-496 894.8,-502 888.8,-502"/>
<text xml:space="preserve" text-anchor="middle" x="760.4" y="-474.1" font-family="Microsoft YaHei" font-size="15.00" fill="#19364f">REUSE</text>
<text xml:space="preserve" text-anchor="middle" x="760.4" y="-456.1" font-family="Microsoft YaHei" font-size="15.00" fill="#19364f">同样改写器＋选中的历史</text>
</g>
<!-- common&#45;&gt;reuse -->
<g id="edge3" class="edge">
<title>common&#45;&gt;reuse</title>
<path fill="none" stroke="#60788e" d="M563.63,-541.56C596.5,-529.71 632.07,-516.88 663.82,-505.43"/>
<polygon fill="#60788e" stroke="#60788e" points="664.64,-507.93 670.81,-502.91 662.86,-502.99 664.64,-507.93"/>
</g>
<!-- runbase -->
<g id="node5" class="node">
<title>runbase</title>
<path fill="#f3f7fc" stroke="#95abc0" d="M268.8,-397.2C268.8,-397.2 12,-397.2 12,-397.2 6,-397.2 0,-391.2 0,-385.2 0,-385.2 0,-344.4 0,-344.4 0,-338.4 6,-332.4 12,-332.4 12,-332.4 268.8,-332.4 268.8,-332.4 274.8,-332.4 280.8,-338.4 280.8,-344.4 280.8,-344.4 280.8,-385.2 280.8,-385.2 280.8,-391.2 274.8,-397.2 268.8,-397.2"/>
<text xml:space="preserve" text-anchor="middle" x="140.4" y="-369.3" font-family="Microsoft YaHei" font-size="15.00" fill="#19364f">独立运行与记录</text>
<text xml:space="preserve" text-anchor="middle" x="140.4" y="-351.3" font-family="Microsoft YaHei" font-size="15.00" fill="#19364f">不接收其他分支结果</text>
</g>
<!-- base&#45;&gt;runbase -->
<g id="edge4" class="edge">
<title>base&#45;&gt;runbase</title>
<path fill="none" stroke="#60788e" d="M140.4,-436.92C140.4,-427.24 140.4,-416.47 140.4,-406.3"/>
<polygon fill="#60788e" stroke="#60788e" points="143.03,-406.57 140.4,-399.07 137.78,-406.57 143.03,-406.57"/>
</g>
<!-- runfresh -->
<g id="node6" class="node">
<title>runfresh</title>
<path fill="#deefe9" stroke="#95abc0" d="M578.8,-397.2C578.8,-397.2 322,-397.2 322,-397.2 316,-397.2 310,-391.2 310,-385.2 310,-385.2 310,-344.4 310,-344.4 310,-338.4 316,-332.4 322,-332.4 322,-332.4 578.8,-332.4 578.8,-332.4 584.8,-332.4 590.8,-338.4 590.8,-344.4 590.8,-344.4 590.8,-385.2 590.8,-385.2 590.8,-391.2 584.8,-397.2 578.8,-397.2"/>
<text xml:space="preserve" text-anchor="middle" x="450.4" y="-369.3" font-family="Microsoft YaHei" font-size="15.00" fill="#19364f">独立运行与记录</text>
<text xml:space="preserve" text-anchor="middle" x="450.4" y="-351.3" font-family="Microsoft YaHei" font-size="15.00" fill="#19364f">相同修复预算</text>
</g>
<!-- fresh&#45;&gt;runfresh -->
<g id="edge5" class="edge">
<title>fresh&#45;&gt;runfresh</title>
<path fill="none" stroke="#60788e" d="M450.4,-436.92C450.4,-427.24 450.4,-416.47 450.4,-406.3"/>
<polygon fill="#60788e" stroke="#60788e" points="453.03,-406.57 450.4,-399.07 447.78,-406.57 453.03,-406.57"/>
</g>
<!-- runreuse -->
<g id="node7" class="node">
<title>runreuse</title>
<path fill="#fff0d4" stroke="#95abc0" d="M888.8,-397.2C888.8,-397.2 632,-397.2 632,-397.2 626,-397.2 620,-391.2 620,-385.2 620,-385.2 620,-344.4 620,-344.4 620,-338.4 626,-332.4 632,-332.4 632,-332.4 888.8,-332.4 888.8,-332.4 894.8,-332.4 900.8,-338.4 900.8,-344.4 900.8,-344.4 900.8,-385.2 900.8,-385.2 900.8,-391.2 894.8,-397.2 888.8,-397.2"/>
<text xml:space="preserve" text-anchor="middle" x="760.4" y="-369.3" font-family="Microsoft YaHei" font-size="15.00" fill="#19364f">独立运行与记录</text>
<text xml:space="preserve" text-anchor="middle" x="760.4" y="-351.3" font-family="Microsoft YaHei" font-size="15.00" fill="#19364f">相同修复预算</text>
</g>
<!-- reuse&#45;&gt;runreuse -->
<g id="edge6" class="edge">
<title>reuse&#45;&gt;runreuse</title>
<path fill="none" stroke="#60788e" d="M760.4,-436.92C760.4,-427.24 760.4,-416.47 760.4,-406.3"/>
<polygon fill="#60788e" stroke="#60788e" points="763.03,-406.57 760.4,-399.07 757.78,-406.57 763.03,-406.57"/>
</g>
<!-- evaluate -->
<g id="node8" class="node">
<title>evaluate</title>
<path fill="#f3f7fc" stroke="#95abc0" d="M791.2,-292.4C791.2,-292.4 109.6,-292.4 109.6,-292.4 103.6,-292.4 97.6,-286.4 97.6,-280.4 97.6,-280.4 97.6,-239.6 97.6,-239.6 97.6,-233.6 103.6,-227.6 109.6,-227.6 109.6,-227.6 791.2,-227.6 791.2,-227.6 797.2,-227.6 803.2,-233.6 803.2,-239.6 803.2,-239.6 803.2,-280.4 803.2,-280.4 803.2,-286.4 797.2,-292.4 791.2,-292.4"/>
<text xml:space="preserve" text-anchor="middle" x="450.4" y="-264.5" font-family="Microsoft YaHei" font-size="15.00" fill="#19364f">运行结束后，才使用参考答案与支持标注</text>
<text xml:space="preserve" text-anchor="middle" x="450.4" y="-246.5" font-family="Microsoft YaHei" font-size="15.00" fill="#19364f">分别算：答案质量 / 证据增量 / 正确变错 / 成本</text>
</g>
<!-- runbase&#45;&gt;evaluate -->
<g id="edge7" class="edge">
<title>runbase&#45;&gt;evaluate</title>
<path fill="none" stroke="#60788e" d="M236.36,-331.98C271.1,-320.46 310.48,-307.4 345.92,-295.65"/>
<polygon fill="#60788e" stroke="#60788e" points="346.63,-298.18 352.92,-293.33 344.98,-293.19 346.63,-298.18"/>
</g>
<!-- runfresh&#45;&gt;evaluate -->
<g id="edge8" class="edge">
<title>runfresh&#45;&gt;evaluate</title>
<path fill="none" stroke="#60788e" d="M450.4,-332.12C450.4,-322.44 450.4,-311.67 450.4,-301.5"/>
<polygon fill="#60788e" stroke="#60788e" points="453.03,-301.77 450.4,-294.27 447.78,-301.77 453.03,-301.77"/>
</g>
<!-- runreuse&#45;&gt;evaluate -->
<g id="edge9" class="edge">
<title>runreuse&#45;&gt;evaluate</title>
<path fill="none" stroke="#60788e" d="M664.44,-331.98C629.7,-320.46 590.32,-307.4 554.88,-295.65"/>
<polygon fill="#60788e" stroke="#60788e" points="555.82,-293.19 547.88,-293.33 554.17,-298.18 555.82,-293.19"/>
</g>
<!-- main -->
<g id="node9" class="node">
<title>main</title>
<path fill="#deefe9" stroke="#428b72" stroke-width="2" d="M791.2,-187.6C791.2,-187.6 109.6,-187.6 109.6,-187.6 103.6,-187.6 97.6,-181.6 97.6,-175.6 97.6,-175.6 97.6,-134.8 97.6,-134.8 97.6,-128.8 103.6,-122.8 109.6,-122.8 109.6,-122.8 791.2,-122.8 791.2,-122.8 797.2,-122.8 803.2,-128.8 803.2,-134.8 803.2,-134.8 803.2,-175.6 803.2,-175.6 803.2,-181.6 797.2,-187.6 791.2,-187.6"/>
<text xml:space="preserve" text-anchor="middle" x="450.4" y="-159.7" font-family="Microsoft YaHei" font-size="15.00" fill="#19364f">主对照：REUSE − FRESH</text>
<text xml:space="preserve" text-anchor="middle" x="450.4" y="-141.7" font-family="Microsoft YaHei" font-size="15.00" fill="#19364f">比现场修复多出的收益，才归入记忆增量</text>
</g>
<!-- evaluate&#45;&gt;main -->
<g id="edge10" class="edge">
<title>evaluate&#45;&gt;main</title>
<path fill="none" stroke="#60788e" d="M450.4,-227.32C450.4,-217.83 450.4,-207.29 450.4,-197.29"/>
<polygon fill="#60788e" stroke="#60788e" points="453.03,-197.32 450.4,-189.82 447.78,-197.32 453.03,-197.32"/>
</g>
<!-- other -->
<g id="node10" class="node">
<title>other</title>
<path fill="#f3f7fc" stroke="#95abc0" d="M791.2,-82.8C791.2,-82.8 109.6,-82.8 109.6,-82.8 103.6,-82.8 97.6,-76.8 97.6,-70.8 97.6,-70.8 97.6,-12 97.6,-12 97.6,-6 103.6,0 109.6,0 109.6,0 791.2,0 791.2,0 797.2,0 803.2,-6 803.2,-12 803.2,-12 803.2,-70.8 803.2,-70.8 803.2,-76.8 797.2,-82.8 791.2,-82.8"/>
<text xml:space="preserve" text-anchor="middle" x="450.4" y="-54.9" font-family="Microsoft YaHei" font-size="15.00" fill="#19364f">辅助：FRESH − BASE ＝ 现场修复收益</text>
<text xml:space="preserve" text-anchor="middle" x="450.4" y="-36.9" font-family="Microsoft YaHei" font-size="15.00" fill="#19364f">辅助：REUSE − BASE ＝ 整个方案收益</text>
<text xml:space="preserve" text-anchor="middle" x="450.4" y="-18.9" font-family="Microsoft YaHei" font-size="15.00" fill="#19364f">同分但更省 token，也可另报效率优势</text>
</g>
<!-- main&#45;&gt;other -->
<g id="edge11" class="edge">
<title>main&#45;&gt;other</title>
<path fill="none" stroke="#60788e" d="M450.4,-121.86C450.4,-112.49 450.4,-102.03 450.4,-91.85"/>
<polygon fill="#60788e" stroke="#60788e" points="453.03,-92.04 450.4,-84.54 447.78,-92.04 453.03,-92.04"/>
</g>
</g>
</svg>
